<svg width="164" height="253" viewBox="0 0 164 253" fill="none" xmlns="http://www.w3.org/2000/svg"><mask id="mask0_17_16905" style="mask-type:alpha" maskUnits="userSpaceOnUse" x="0" y="0" width="164" height="253"><rect y="0.229248" width="164" height="252.771" fill="#D9D9D9"/></mask><g mask="url(#mask0_17_16905)"/><mask id="mask1_17_16905" style="mask-type:alpha" maskUnits="userSpaceOnUse" x="0" y="0" width="164" height="253"><rect y="0.229248" width="164" height="252.771" fill="#D9D9D9"/></mask><g mask="url(#mask1_17_16905)"><path d="M43.3467 62.0275L97.2922 134.454" stroke="#1CB0F6" stroke-width="13.98"/><path fill-rule="evenodd" clip-rule="evenodd" d="M116.681 135.085C113.228 136.769 111.738 140.865 113.25 144.355L113.412 144.703L140.213 198.576C140.663 199.48 141.209 200.316 141.837 201.076C141.108 202.935 141.874 205.086 143.68 206.046L154.876 211.999C156.822 213.033 159.237 212.295 160.272 210.349C160.733 209.482 160.842 208.521 160.648 207.63L168.414 208.86C170.59 209.204 172.634 207.72 172.978 205.544C173.323 203.367 171.838 201.324 169.662 200.979L156.097 198.83L126.348 138.394C124.587 134.817 120.265 133.337 116.681 135.085Z" fill="#E18E70"/><path fill-rule="evenodd" clip-rule="evenodd" d="M116.681 135.085C120.229 133.354 124.501 134.787 126.295 138.287L126.348 138.394L153.176 192.897L140.482 199.088C140.422 198.978 140.362 198.867 140.305 198.756L140.213 198.576L113.412 144.703L113.25 144.355C111.738 140.865 113.228 136.769 116.681 135.085Z" fill="#1CB0F6"/><path d="M106.801 219.128C125.752 219.128 141.115 203.818 141.115 184.933C141.115 166.048 125.752 150.738 106.801 150.738C87.8505 150.738 72.4878 166.048 72.4878 184.933C72.4878 203.818 87.8505 219.128 106.801 219.128Z" fill="#FFB7E3"/><path d="M128.291 187.783H85.5476C81.7443 187.783 78.6611 190.866 78.6611 194.669V264.246C78.6611 268.049 81.7443 271.132 85.5476 271.132H128.291C132.094 271.132 135.177 268.049 135.177 264.246V194.669C135.177 190.866 132.094 187.783 128.291 187.783Z" fill="#FFB7E3"/><path fill-rule="evenodd" clip-rule="evenodd" d="M106.409 193.454C107.314 193.454 108.048 194.188 108.048 195.093V271.156H104.771V195.093C104.771 194.188 105.504 193.454 106.409 193.454Z" fill="#FFA1DA"/><path d="M109.919 191.817H102.429C101.525 191.817 100.791 192.55 100.791 193.455C100.791 194.36 101.525 195.093 102.429 195.093H109.919C110.823 195.093 111.557 194.36 111.557 193.455C111.557 192.55 110.823 191.817 109.919 191.817Z" fill="#FFA1DA"/><path fill-rule="evenodd" clip-rule="evenodd" d="M115.73 113.838L128.785 140.4C130.984 144.873 129.14 150.28 124.668 152.479C123.429 153.088 122.067 153.404 120.687 153.404H94.5759C89.5923 153.404 85.5522 149.364 85.5522 144.381C85.5522 143 85.8688 141.639 86.4776 140.4L99.5333 113.838C101.732 109.366 107.14 107.522 111.612 109.721C113.402 110.601 114.85 112.049 115.73 113.838Z" fill="#1CB0F6"/><path d="M125.679 150.263H88.1602V156.437H125.679V150.263Z" fill="#FF86D0"/><path fill-rule="evenodd" clip-rule="evenodd" d="M121.836 115.481L116.489 116.697C114.672 117.11 113.535 118.918 113.948 120.734C113.986 120.903 114.037 121.069 114.101 121.23L121.13 138.964C121.743 140.51 123.392 141.379 125.014 141.01L133.211 139.146C135.028 138.733 136.166 136.926 135.753 135.109C135.678 134.779 135.553 134.462 135.384 134.168L125.504 117.082C124.765 115.803 123.278 115.154 121.836 115.481Z" fill="#FFB7E3"/><path d="M119.993 113.226L96.5729 111.181C92.4574 110.821 88.8298 113.866 88.4704 117.982C88.1111 122.097 91.156 125.725 95.2715 126.084L118.691 128.129C122.807 128.489 126.434 125.444 126.794 121.328C127.153 117.213 124.108 113.585 119.993 113.226Z" fill="#FFB7E3"/><rect x="60.8291" y="12.0779" width="108.89" height="108.89" rx="54.445" fill="#FFB7E3"/><path fill-rule="evenodd" clip-rule="evenodd" d="M81.5082 109.237C78.4563 106.821 75.6694 104.085 73.1982 101.08C89.3692 107.596 103.641 109.01 116.163 106.136C126.774 103.7 135.763 98.2793 143.24 90.7148C144.208 89.7354 145.787 89.7263 146.766 90.6943C147.745 91.6623 147.754 93.241 146.786 94.2204C138.68 102.421 128.876 108.334 117.279 110.996C106.474 113.476 94.5563 113.015 81.5082 109.237Z" fill="#FF9BD8"/><path fill-rule="evenodd" clip-rule="evenodd" d="M128.652 26.2846C150.662 33.8634 162.361 57.8503 154.783 79.8607C147.204 101.871 123.217 113.57 101.206 105.991C79.1961 98.4127 67.4969 74.4259 75.0757 52.4154C82.6545 30.405 106.641 18.7058 128.652 26.2846Z" fill="#E18E70"/><path d="M119.627 61.9174C115.153 64.8334 113.892 70.8222 116.81 75.2937C118.734 78.2412 121.994 79.7936 125.274 79.6742L125.246 79.7109L125.534 79.66C126.214 79.6182 126.895 79.5025 127.564 79.3119L129.344 79.0222C131.077 78.7491 132.667 78.5256 134.113 78.3511C134.836 78.3531 135.551 78.2715 136.245 78.1142C136.499 78.0766 136.712 78.0203 136.885 77.9453C139.788 77.0756 142.238 74.8595 143.279 71.7715C144.985 66.7127 142.264 61.2297 137.202 59.5247C131.187 57.4992 125.045 58.3863 119.627 61.9174Z" fill="white"/><path fill-rule="evenodd" clip-rule="evenodd" d="M128.566 61.6918C131.914 62.8446 133.693 66.4933 132.54 69.8414L131.535 72.7603C130.383 76.1083 126.734 77.8879 123.386 76.7351C120.038 75.5822 118.258 71.9335 119.411 68.5855L120.416 65.6666C120.457 65.5483 120.501 65.432 120.547 65.3177C120.663 65.3742 120.784 65.4228 120.909 65.4656C122.936 66.1636 125.146 65.0816 125.846 63.0489C126.04 62.487 126.098 61.9113 126.037 61.3576C126.869 61.2982 127.727 61.4029 128.566 61.6918Z" fill="#3D3D3D"/><path fill-rule="evenodd" clip-rule="evenodd" d="M128.652 26.2845C136.877 29.1166 143.662 34.24 148.539 40.6953L147.802 41.063L147.043 41.4393C134.711 47.5238 113.737 56.4809 85.8618 45.8071C83.8996 45.0557 81.6937 43.5426 80.2075 42.2245C90.6701 27.0138 110.345 19.9808 128.652 26.2845Z" fill="#3D3D3D"/><path d="M114.499 60.1517C116.229 65.2042 113.536 70.6999 108.484 72.4268C105.153 73.5651 101.629 72.7816 99.1176 70.6681L99.1164 70.7138L98.921 70.4965C98.4112 70.0452 97.9457 69.5347 97.5362 68.9728L96.3111 67.6481C95.1136 66.366 93.9987 65.2112 92.9663 64.1833C92.3953 63.7397 91.8823 63.2353 91.4324 62.6842C91.2556 62.4983 91.1222 62.3227 91.0319 62.1569C89.28 59.6845 88.7138 56.4298 89.7943 53.3553C91.5649 48.319 97.0847 45.6735 102.123 47.4464C108.11 49.5534 112.404 54.0338 114.499 60.1517Z" fill="white"/><path fill-rule="evenodd" clip-rule="evenodd" d="M107.908 54.5788C111.161 55.6987 112.933 59.1739 111.975 62.4408L111.883 62.7284L110.878 65.6473C109.725 68.9953 106.077 70.7749 102.729 69.6221C99.4762 68.5022 97.7039 65.027 98.6621 61.7601L98.7538 61.4725L99.7588 58.5536C99.8625 58.2524 99.9865 57.9638 100.129 57.689C100.569 58.2352 101.163 58.6665 101.874 58.9113C103.901 59.6093 106.112 58.5273 106.812 56.4947C107.062 55.7681 107.085 55.0185 106.919 54.3232C107.25 54.3811 107.58 54.4659 107.908 54.5788Z" fill="#3D3D3D"/><path d="M77.553 24.5966L99.9968 39.4268C101.18 40.2268 101.24 41.9503 100.117 42.8307C94.7178 47.0606 87.096 47.3484 81.2655 43.4055C75.435 39.4626 72.846 32.2695 74.7353 25.6663C75.1285 24.2919 76.3701 23.7967 77.553 24.5966Z" fill="#3D3D3D"/><path fill-rule="evenodd" clip-rule="evenodd" d="M81.3258 27.1384C89.0814 32.0967 94.453 28.8162 99.4466 26.9828C102.776 25.7606 105.228 28.7366 106.803 35.9108L93.9854 39.9897L80.8856 32.5177C76.0087 25.626 76.1554 23.8329 81.3258 27.1384Z" fill="#3D3D3D"/><path d="M82.2582 65.8264L83.9181 58.6546L84.164 58.7151L84.3324 58.7589L84.5082 58.8061L84.7442 58.8717L84.9932 58.9432L85.1224 58.9812L85.4593 59.0829L85.529 59.1044C86.7063 59.4691 87.9948 59.932 89.3605 60.5034C93.2634 62.1362 97.0437 64.3262 100.422 67.1714C105.315 71.2928 108.926 76.4366 110.797 82.6752L110.861 82.8883L103.795 84.9548C102.374 80.0954 99.5745 76.0824 95.6795 72.8018C92.9221 70.4793 89.7768 68.6572 86.5194 67.2943C85.4503 66.8471 84.4448 66.4819 83.5323 66.193L83.2433 66.1031L83.0368 66.0409L82.8425 65.9842L82.6608 65.9328L82.3615 65.8524L82.2582 65.8264Z" fill="#E18E70"/><path d="M146.058 85.5501L150.382 76.2642L150.224 76.1921L150.07 76.1245L149.887 76.0459L149.656 75.9492C149.577 75.9164 149.496 75.883 149.412 75.8492L149.153 75.746L148.81 75.6131L148.739 75.586C147.545 75.1327 146.201 74.6899 144.727 74.2867C140.514 73.1344 136.045 72.513 131.472 72.6812C124.81 72.9262 118.525 74.8403 112.966 78.7786L112.782 78.9092L118.759 87.228C122.627 84.4493 127.029 83.0948 131.849 82.9175C135.293 82.7908 138.751 83.2716 142.025 84.1671C143.099 84.461 144.076 84.7789 144.933 85.0984L145.203 85.2003L145.392 85.2738L145.568 85.3441L145.732 85.4108L145.948 85.502L146.058 85.5501Z" fill="#E18E70"/><path fill-rule="evenodd" clip-rule="evenodd" d="M109.818 81.8578C111.926 82.5837 114.217 81.4841 114.934 79.4018C115.651 77.3195 113.529 71.0805 113.529 71.0805C113.529 71.0805 108.017 74.691 107.3 76.7732C106.583 78.8555 107.71 81.132 109.818 81.8578Z" fill="#9E4D31"/><path d="M100.034 150.263H95.0469V159.999H100.034V150.263Z" fill="#FFB7E3"/><path d="M118.556 150.263H113.569V159.999H118.556V150.263Z" fill="#FFB7E3"/><path d="M104.752 87.3152C104.534 86.4972 105.397 85.7758 106.202 86.0349C112.108 87.9339 117.368 85.5043 119.879 83.9713C120.513 83.584 121.412 84.0526 121.396 84.7957L121.122 96.983C121.039 100.68 118.018 103.633 114.32 103.633C111.236 103.633 108.538 101.559 107.745 98.5779L104.752 87.3152Z" fill="#881B1B"/><path fill-rule="evenodd" clip-rule="evenodd" d="M121.128 96.7658L121.123 96.9828C121.04 100.68 118.019 103.633 114.321 103.633C111.827 103.633 109.585 102.276 108.399 100.18C109.976 97.3738 112.981 95.4778 116.429 95.4778C118.145 95.4778 119.752 95.9477 121.128 96.7658Z" fill="#B12E2E"/><path d="M49.1896 59.0462C46.9125 64.8611 40.3526 67.729 34.5378 65.4518C33.9347 65.2156 33.3633 64.9334 32.8261 64.6107C32.6556 64.5663 32.4861 64.5098 32.3186 64.4408L19.5823 59.195C17.5876 58.3734 16.6366 56.0903 17.4582 54.0956C18.2797 52.1009 20.5628 51.1499 22.5576 51.9715L27.3915 53.9625C27.394 53.9335 27.3966 53.9045 27.3993 53.8755L20.9302 49.6122C19.1289 48.4251 18.631 46.0025 19.8181 44.2012C21.0052 42.3999 23.4278 41.902 25.2291 43.0891L30.6143 46.638C30.6767 46.5598 30.7397 46.4821 30.8033 46.405L27.233 42.0914C25.8575 40.4295 26.0896 37.9672 27.7515 36.5917C29.4134 35.2161 31.8757 35.4483 33.2512 37.1102L40.688 46.0952C40.9947 46.4298 41.3159 46.7551 41.7144 47.1259C42.9402 48.2667 43.9203 47.6705 44.6547 45.3372L45.3634 42.3591C45.8628 40.2604 47.969 38.9639 50.0677 39.4634C52.1664 39.9628 53.4629 42.069 52.9634 44.1677L49.965 56.7678C49.8891 57.0864 49.7763 57.3865 49.6321 57.6647C49.5156 58.1282 49.3685 58.5895 49.1896 59.0462Z" fill="#E18E70"/><path d="M43.3467 62.0275L97.2922 134.454" stroke="#1CB0F6" stroke-width="13.98"/><path fill-rule="evenodd" clip-rule="evenodd" d="M116.681 135.085C113.228 136.769 111.738 140.865 113.25 144.355L113.412 144.703L140.213 198.576C140.663 199.48 141.209 200.316 141.837 201.076C141.108 202.935 141.874 205.086 143.68 206.046L154.876 211.999C156.822 213.033 159.237 212.295 160.272 210.349C160.733 209.482 160.842 208.521 160.648 207.63L168.414 208.86C170.59 209.204 172.634 207.72 172.978 205.544C173.323 203.367 171.838 201.324 169.662 200.979L156.097 198.83L126.348 138.394C124.587 134.817 120.265 133.337 116.681 135.085Z" fill="#E18E70"/><path fill-rule="evenodd" clip-rule="evenodd" d="M116.681 135.085C120.229 133.354 124.501 134.787 126.295 138.287L126.348 138.394L153.176 192.897L140.482 199.088C140.422 198.978 140.362 198.867 140.305 198.756L140.213 198.576L113.412 144.703L113.25 144.355C111.738 140.865 113.228 136.769 116.681 135.085Z" fill="#1CB0F6"/><path d="M106.801 219.128C125.752 219.128 141.115 203.818 141.115 184.933C141.115 166.048 125.752 150.738 106.801 150.738C87.8505 150.738 72.4878 166.048 72.4878 184.933C72.4878 203.818 87.8505 219.128 106.801 219.128Z" fill="#FFB7E3"/><path d="M128.291 187.783H85.5476C81.7443 187.783 78.6611 190.866 78.6611 194.669V264.246C78.6611 268.049 81.7443 271.132 85.5476 271.132H128.291C132.094 271.132 135.177 268.049 135.177 264.246V194.669C135.177 190.866 132.094 187.783 128.291 187.783Z" fill="#FFB7E3"/><path fill-rule="evenodd" clip-rule="evenodd" d="M106.409 193.454C107.314 193.454 108.048 194.188 108.048 195.093V271.156H104.771V195.093C104.771 194.188 105.504 193.454 106.409 193.454Z" fill="#FFA1DA"/><path d="M109.919 191.817H102.429C101.525 191.817 100.791 192.55 100.791 193.455C100.791 194.36 101.525 195.093 102.429 195.093H109.919C110.823 195.093 111.557 194.36 111.557 193.455C111.557 192.55 110.823 191.817 109.919 191.817Z" fill="#FFA1DA"/><path fill-rule="evenodd" clip-rule="evenodd" d="M115.73 113.838L128.785 140.4C130.984 144.873 129.14 150.28 124.668 152.479C123.429 153.088 122.067 153.404 120.687 153.404H94.5759C89.5923 153.404 85.5522 149.364 85.5522 144.381C85.5522 143 85.8688 141.639 86.4776 140.4L99.5333 113.838C101.732 109.366 107.14 107.522 111.612 109.721C113.402 110.601 114.85 112.049 115.73 113.838Z" fill="#1CB0F6"/><path d="M125.679 150.263H88.1602V156.437H125.679V150.263Z" fill="#FF86D0"/><path fill-rule="evenodd" clip-rule="evenodd" d="M121.836 115.481L116.489 116.697C114.672 117.11 113.535 118.918 113.948 120.734C113.986 120.903 114.037 121.069 114.101 121.23L121.13 138.964C121.743 140.51 123.392 141.379 125.014 141.01L133.211 139.146C135.028 138.733 136.166 136.926 135.753 135.109C135.678 134.779 135.553 134.462 135.384 134.168L125.504 117.082C124.765 115.803 123.278 115.154 121.836 115.481Z" fill="#FFB7E3"/><path d="M119.993 113.226L96.5729 111.181C92.4574 110.821 88.8298 113.866 88.4704 117.982C88.1111 122.097 91.156 125.725 95.2715 126.084L118.691 128.129C122.807 128.489 126.434 125.444 126.794 121.328C127.153 117.213 124.108 113.585 119.993 113.226Z" fill="#FFB7E3"/><rect x="60.8291" y="12.0779" width="108.89" height="108.89" rx="54.445" fill="#FFB7E3"/><path fill-rule="evenodd" clip-rule="evenodd" d="M81.5082 109.237C78.4563 106.821 75.6694 104.085 73.1982 101.08C89.3692 107.596 103.641 109.01 116.163 106.136C126.774 103.7 135.763 98.2793 143.24 90.7148C144.208 89.7354 145.787 89.7263 146.766 90.6943C147.745 91.6623 147.754 93.241 146.786 94.2204C138.68 102.421 128.876 108.334 117.279 110.996C106.474 113.476 94.5563 113.015 81.5082 109.237Z" fill="#FF9BD8"/><path fill-rule="evenodd" clip-rule="evenodd" d="M128.652 26.2846C150.662 33.8634 162.361 57.8503 154.783 79.8607C147.204 101.871 123.217 113.57 101.206 105.991C79.1961 98.4127 67.4969 74.4259 75.0757 52.4154C82.6545 30.405 106.641 18.7058 128.652 26.2846Z" fill="#E18E70"/><path d="M119.627 61.9174C115.153 64.8334 113.892 70.8222 116.81 75.2937C118.734 78.2412 121.994 79.7936 125.274 79.6742L125.246 79.7109L125.534 79.66C126.214 79.6182 126.895 79.5025 127.564 79.3119L129.344 79.0222C131.077 78.7491 132.667 78.5256 134.113 78.3511C134.836 78.3531 135.551 78.2715 136.245 78.1142C136.499 78.0766 136.712 78.0203 136.885 77.9453C139.788 77.0756 142.238 74.8595 143.279 71.7715C144.985 66.7127 142.264 61.2297 137.202 59.5247C131.187 57.4992 125.045 58.3863 119.627 61.9174Z" fill="white"/><path fill-rule="evenodd" clip-rule="evenodd" d="M128.566 61.6918C131.914 62.8446 133.693 66.4933 132.54 69.8414L131.535 72.7603C130.383 76.1083 126.734 77.8879 123.386 76.7351C120.038 75.5822 118.258 71.9335 119.411 68.5855L120.416 65.6666C120.457 65.5483 120.501 65.432 120.547 65.3177C120.663 65.3742 120.784 65.4228 120.909 65.4656C122.936 66.1636 125.146 65.0816 125.846 63.0489C126.04 62.487 126.098 61.9113 126.037 61.3576C126.869 61.2982 127.727 61.4029 128.566 61.6918Z" fill="#3D3D3D"/><path fill-rule="evenodd" clip-rule="evenodd" d="M128.652 26.2845C136.877 29.1166 143.662 34.24 148.539 40.6953L147.802 41.063L147.043 41.4393C134.711 47.5238 113.737 56.4809 85.8618 45.8071C83.8996 45.0557 81.6937 43.5426 80.2075 42.2245C90.6701 27.0138 110.345 19.9808 128.652 26.2845Z" fill="#3D3D3D"/><path d="M114.499 60.1517C116.229 65.2042 113.536 70.6999 108.484 72.4268C105.153 73.5651 101.629 72.7816 99.1176 70.6681L99.1164 70.7138L98.921 70.4965C98.4112 70.0452 97.9457 69.5347 97.5362 68.9728L96.3111 67.6481C95.1136 66.366 93.9987 65.2112 92.9663 64.1833C92.3953 63.7397 91.8823 63.2353 91.4324 62.6842C91.2556 62.4983 91.1222 62.3227 91.0319 62.1569C89.28 59.6845 88.7138 56.4298 89.7943 53.3553C91.5649 48.319 97.0847 45.6735 102.123 47.4464C108.11 49.5534 112.404 54.0338 114.499 60.1517Z" fill="white"/><path fill-rule="evenodd" clip-rule="evenodd" d="M107.908 54.5788C111.161 55.6987 112.933 59.1739 111.975 62.4408L111.883 62.7284L110.878 65.6473C109.725 68.9953 106.077 70.7749 102.729 69.6221C99.4762 68.5022 97.7039 65.027 98.6621 61.7601L98.7538 61.4725L99.7588 58.5536C99.8625 58.2524 99.9865 57.9638 100.129 57.689C100.569 58.2352 101.163 58.6665 101.874 58.9113C103.901 59.6093 106.112 58.5273 106.812 56.4947C107.062 55.7681 107.085 55.0185 106.919 54.3232C107.25 54.3811 107.58 54.4659 107.908 54.5788Z" fill="#3D3D3D"/><path d="M77.553 24.5966L99.9968 39.4268C101.18 40.2268 101.24 41.9503 100.117 42.8307C94.7178 47.0606 87.096 47.3484 81.2655 43.4055C75.435 39.4626 72.846 32.2695 74.7353 25.6663C75.1285 24.2919 76.3701 23.7967 77.553 24.5966Z" fill="#3D3D3D"/><path fill-rule="evenodd" clip-rule="evenodd" d="M81.3258 27.1384C89.0814 32.0967 94.453 28.8162 99.4466 26.9828C102.776 25.7606 105.228 28.7366 106.803 35.9108L93.9854 39.9897L80.8856 32.5177C76.0087 25.626 76.1554 23.8329 81.3258 27.1384Z" fill="#3D3D3D"/><path d="M82.2582 65.8264L83.9181 58.6546L84.164 58.7151L84.3324 58.7589L84.5082 58.8061L84.7442 58.8717L84.9932 58.9432L85.1224 58.9812L85.4593 59.0829L85.529 59.1044C86.7063 59.4691 87.9948 59.932 89.3605 60.5034C93.2634 62.1362 97.0437 64.3262 100.422 67.1714C105.315 71.2928 108.926 76.4366 110.797 82.6752L110.861 82.8883L103.795 84.9548C102.374 80.0954 99.5745 76.0824 95.6795 72.8018C92.9221 70.4793 89.7768 68.6572 86.5194 67.2943C85.4503 66.8471 84.4448 66.4819 83.5323 66.193L83.2433 66.1031L83.0368 66.0409L82.8425 65.9842L82.6608 65.9328L82.3615 65.8524L82.2582 65.8264Z" fill="#E18E70"/><path d="M146.058 85.5501L150.382 76.2642L150.224 76.1921L150.07 76.1245L149.887 76.0459L149.656 75.9492C149.577 75.9164 149.496 75.883 149.412 75.8492L149.153 75.746L148.81 75.6131L148.739 75.586C147.545 75.1327 146.201 74.6899 144.727 74.2867C140.514 73.1344 136.045 72.513 131.472 72.6812C124.81 72.9262 118.525 74.8403 112.966 78.7786L112.782 78.9092L118.759 87.228C122.627 84.4493 127.029 83.0948 131.849 82.9175C135.293 82.7908 138.751 83.2716 142.025 84.1671C143.099 84.461 144.076 84.7789 144.933 85.0984L145.203 85.2003L145.392 85.2738L145.568 85.3441L145.732 85.4108L145.948 85.502L146.058 85.5501Z" fill="#E18E70"/><path fill-rule="evenodd" clip-rule="evenodd" d="M109.818 81.8578C111.926 82.5837 114.217 81.4841 114.934 79.4018C115.651 77.3195 113.529 71.0805 113.529 71.0805C113.529 71.0805 108.017 74.691 107.3 76.7732C106.583 78.8555 107.71 81.132 109.818 81.8578Z" fill="#9E4D31"/><path d="M100.034 150.263H95.0469V159.999H100.034V150.263Z" fill="#FFB7E3"/><path d="M118.556 150.263H113.569V159.999H118.556V150.263Z" fill="#FFB7E3"/><path d="M104.752 87.3152C104.534 86.4972 105.397 85.7758 106.202 86.0349C112.108 87.9339 117.368 85.5043 119.879 83.9713C120.513 83.584 121.412 84.0526 121.396 84.7957L121.122 96.983C121.039 100.68 118.018 103.633 114.32 103.633C111.236 103.633 108.538 101.559 107.745 98.5779L104.752 87.3152Z" fill="#881B1B"/><path fill-rule="evenodd" clip-rule="evenodd" d="M121.128 96.7658L121.123 96.9828C121.04 100.68 118.019 103.633 114.321 103.633C111.827 103.633 109.585 102.276 108.399 100.18C109.976 97.3738 112.981 95.4778 116.429 95.4778C118.145 95.4778 119.752 95.9477 121.128 96.7658Z" fill="#B12E2E"/><path d="M49.1896 59.0462C46.9125 64.8611 40.3526 67.729 34.5378 65.4518C33.9347 65.2156 33.3633 64.9334 32.8261 64.6107C32.6556 64.5663 32.4861 64.5098 32.3186 64.4408L19.5823 59.195C17.5876 58.3734 16.6366 56.0903 17.4582 54.0956C18.2797 52.1009 20.5628 51.1499 22.5576 51.9715L27.3915 53.9625C27.394 53.9335 27.3966 53.9045 27.3993 53.8755L20.9302 49.6122C19.1289 48.4251 18.631 46.0025 19.8181 44.2012C21.0052 42.3999 23.4278 41.902 25.2291 43.0891L30.6143 46.638C30.6767 46.5598 30.7397 46.4821 30.8033 46.405L27.233 42.0914C25.8575 40.4295 26.0896 37.9672 27.7515 36.5917C29.4134 35.2161 31.8757 35.4483 33.2512 37.1102L40.688 46.0952C40.9947 46.4298 41.3159 46.7551 41.7144 47.1259C42.9402 48.2667 43.9203 47.6705 44.6547 45.3372L45.3634 42.3591C45.8628 40.2604 47.969 38.9639 50.0677 39.4634C52.1664 39.9628 53.4629 42.069 52.9634 44.1677L49.965 56.7678C49.8891 57.0864 49.7763 57.3865 49.6321 57.6647C49.5156 58.1282 49.3685 58.5895 49.1896 59.0462Z" fill="#E18E70"/></g></svg>